<?xml version="1.0" encoding="UTF-8"?><svg id="uuid-6fb7155d-af90-4233-955d-09209025683a" xmlns="http://www.w3.org/2000/svg" viewBox="0 0 619.98 512"><path d="M574.01,348.24L404.52,54.69v-.08c-9.96-17.26-23.58-30.87-39.76-40.21C348.51,5.01,329.88,0,309.99,0s-38.52,5.01-54.78,14.4c-16.18,9.34-29.79,22.95-39.76,40.21v.08l-84.71,146.72-.03-.02-84.74,146.78v.08c-10.01,17.34-15.02,35.94-15.02,54.54s5.01,37.27,15.02,54.61c9.96,17.26,23.58,30.87,39.76,40.21,16.26,9.39,34.88,14.4,54.78,14.4h338.97c19.89,0,38.52-5.01,54.78-14.4,16.18-9.34,29.79-22.95,39.76-40.21,10.01-17.34,15.02-35.97,15.02-54.61s-5.01-37.19-15.02-54.54ZM276.44,158.62c10.99-41.8,53.86-43.99,66.5-2.12,12.49,41.42-15.68,110.95-15.45,186.17.03,8.75-35.01,8.75-34.99,0,.22-73.95-27.01-142.4-16.05-184.05ZM341.67,394.58c0,17.5-14.19,31.68-31.68,31.68s-31.68-14.18-31.68-31.68,14.18-31.68,31.68-31.68,31.68,14.19,31.68,31.68Z" fill="#432dd7"/></svg>