<?xml version="1.0" encoding="UTF-8"?><svg id="uuid-ade3b467-f934-4dd0-88b3-2283454df927" xmlns="http://www.w3.org/2000/svg" viewBox="0 0 619.98 512"><path d="M167.66.65l-83.34.63-3.14,3.14-3.02,3.14-1.76,72.91,3.27,3.77,3.14,3.77h327.07l3.39-3.52,3.52-3.39V5.3l-3.52-2.64C409.76.02,409.13.02,330.31.02c-43.74-.13-116.9.25-162.66.63h0ZM397.31,19.51v49.02H96.89V20.77l31.8-.38c17.35-.13,84.97-.38,150.21-.63l118.41-.25h0Z" fill="#432dd7"/><path d="M116.37,101.72c-3.9,3.9-4.02,8.42-.25,12.7l2.89,3.39,165.17.75,165.3.63,7.79,6.79c5.66,4.9,10.31,10.94,16.84,21.49,8.55,13.95,27.53,48.02,36.33,65.62,4.9,9.68,16.72,43.11,18.73,53.05,1.76,8.04,6.16,13.58,11.06,13.58,11.44,0,20.49-6.41,20.49-14.46,0-6.66-7.92-36.45-13.58-50.66-5.41-13.95-18.48-37.58-33.44-60.59-9.55-14.71-26.77-35.2-40.1-47.77l-7.42-6.91-173.34-.38-173.47-.25-3.02,3.02h0Z" fill="#432dd7"/><path d="M249.36,124.97l-125.95.75-2.77,2.77c-4.02,3.9-3.77,10.06.63,13.83l3.39,2.89h38.59c21.24,0,85.85-.38,143.55-.88l104.83-.75,2.89-2.89c3.9-3.9,3.77-9.3-.38-13.2-3.9-3.65,10.06-3.39-164.79-2.51h0Z" fill="#432dd7"/><path d="M78.29,155.64c-3.39,3.65-3.52,8.42-.38,12.32,2.26,2.89,3.39,3.02,19.48,3.65l17.22.63-6.41,7.54c-21.37,25.01-37.96,59.08-45.38,93.27-4.15,19.23-4.78,56.44-1.38,76.55,9.43,54.93,40.22,104.21,84.97,135.88l11.19,7.92h-17.85c-22.37,0-26.52,1.63-26.52,10.56,0,1.51,1.13,4.02,2.39,5.41l2.51,2.64,143.05-.63c128.47-.63,143.17-.88,144.68-2.64,2.26-2.89,1.89-7.04-.88-10.43-2.14-2.77-3.65-3.02-15.71-3.65l-13.45-.63,9.8-6.54c27.53-18.48,52.67-47.26,68.26-78.31,20.74-41.48,27.4-91.01,18.1-135.76-6.66-32.43-24.39-68.63-45.75-93.65l-6.41-7.54,16.34-.63c18.98-.75,21.87-2.14,21.24-9.93l-.38-4.53-154.61-.75c-142.17-.75-175.98-1.26-209.29-3.14-11.44-.63-12.07-.5-14.83,2.39h0ZM401.59,182.54c6.03,6.16,14.58,16.09,19.11,22.37,8.17,11.44,20.61,35.07,25.64,48.9l2.64,7.42-130.48-.88c-186.54-1.13-230.41-1.89-230.41-4.15,0-3.14,8.8-23.13,14.71-33.44,8.17-14.2,18.73-28.03,30.8-40.48l10.43-10.68h246.62l10.94,10.94h0Z" fill="#432dd7"/></svg>