<?xml version="1.0" encoding="UTF-8"?><svg id="uuid-52bd7415-adc1-4fff-9ac8-10fd5a330565" xmlns="http://www.w3.org/2000/svg" viewBox="0 0 619.98 512"><path d="M98.21,238.09c.77,5.54,1.78,11.83,3.04,18.7,1.58,8.63,3.57,18.2,5.96,28.41h337.81c2.39-10.2,4.37-19.77,5.96-28.41,1.26-6.88,2.28-13.16,3.04-18.7H98.21ZM141.3,512h268.61l26.15-24.92H114.13l27.17,24.92h0ZM205.06,223.08c-71.05-65.27,34.6-93.53-2.66-138.82,61.85,49.93-19.08,78.3,2.66,138.82h0ZM353.1,221.31c-66.06-60.68,32.17-86.96-2.47-129.06,57.51,46.42-17.74,72.8,2.47,129.06h0ZM268.33,221.31C381.6,117.25,213.17,72.2,272.57,0c-98.61,79.59,30.42,124.83-4.24,221.31h0ZM518.4,312.31c-6.37,18.46-21.19,35.11-40.49,47.64-11.86,7.7-25.5,13.9-39.93,18.03.81-2.12,1.6-4.24,2.38-6.37,1.98-5.39,3.86-10.82,5.67-16.29,7.69-3.1,14.96-6.87,21.6-11.19,15.93-10.34,28.01-23.64,32.95-37.96,1.53-4.43,2.26-8.76,2.26-12.92h.04c0-7.64-2.67-14.6-7.54-20.44-5.21-6.24-12.9-11.28-22.57-14.62-1.13-.39-2.29-.76-3.47-1.1.45-3.51.84-7.01,1.15-10.47l.76-8.53c2.65.67,5.22,1.44,7.69,2.29,13.03,4.5,23.57,11.5,30.92,20.31,7.69,9.21,11.9,20.31,11.9,32.56h.04c0,6.07-1.09,12.45-3.37,19.06h0ZM439.72,306.49H112.51c8.85,32.88,21.32,68.98,37.36,99.05,19.03,35.67,42.73,62.29,70.36,62.29h111.76c27.63,0,51.33-26.62,70.36-62.29,16.05-30.07,28.52-66.17,37.36-99.05h0Z" fill="#432dd7"/></svg>