<?xml version="1.0" encoding="UTF-8"?><svg id="uuid-652fb7a3-fe5b-4367-a5ee-8d26497363fe" xmlns="http://www.w3.org/2000/svg" viewBox="0 0 619.98 512"><path d="M268.14,295.33c-3.16,0-6.28-1.42-8.36-4.12l-22.13-28.81c-2.9-3.78-2.91-9.04,0-12.83l22.13-28.81c3.54-4.61,10.15-5.48,14.76-1.94,4.61,3.54,5.48,10.15,1.94,14.76l-17.2,22.39,17.2,22.39c3.54,4.61,2.67,11.22-1.94,14.76-1.91,1.47-4.17,2.18-6.41,2.18h0ZM309.99,512c41.42,0,82.57-10.13,119-29.28,35.25-18.54,66.15-45.5,89.37-77.97,3.38-4.73,2.29-11.31-2.44-14.69-4.73-3.38-11.31-2.29-14.69,2.44-44.08,61.64-115.57,98.44-191.24,98.44-126.02,0-229.17-99.74-234.7-224.42h43.21c4.01,0,7.68-2.28,9.45-5.88,1.77-3.6,1.34-7.89-1.11-11.07l-54.57-70.81c-2.01-2.6-5.08-4.1-8.39-4.1-3.28.02-6.37,1.57-8.35,4.19L2.12,249.66c-2.41,3.19-2.8,7.46-1.02,11.03,1.78,3.57,5.43,5.83,9.42,5.83h43.67c2.59,64.43,28.9,124.63,74.77,170.49,48.35,48.35,112.64,74.98,181.02,74.98h0ZM544.68,245.47h-43.21c-3.99,0-7.64,2.26-9.42,5.83-1.78,3.57-1.39,7.85,1.02,11.04l53.41,70.81c1.98,2.62,5.07,4.17,8.35,4.19h.05c3.26,0,6.34-1.51,8.34-4.1l54.57-70.81c2.45-3.18,2.88-7.47,1.11-11.07-1.77-3.6-5.43-5.88-9.45-5.88h-43.68c-2.59-64.43-28.9-124.63-74.77-170.49C442.65,26.63,378.37,0,309.99,0,268.56,0,227.41,10.13,190.99,29.28c-35.25,18.54-66.15,45.5-89.37,77.97-3.38,4.73-2.29,11.31,2.44,14.69,4.73,3.38,11.31,2.29,14.69-2.44,44.07-61.64,115.57-98.44,191.24-98.44,126.02,0,229.17,99.74,234.7,224.42h0ZM31.66,245.47l32.37-42.92,33.07,42.92H31.66ZM522.6,266.53h65.44l-33.07,42.92-32.37-42.92h0ZM341.19,459.93c5.05,0,9.38-3.58,10.34-8.54l10.44-54.29c16.13-5.93,30.95-14.5,44.19-25.55l52.27,18.11c4.78,1.65,10.04-.31,12.56-4.68l31.2-54.04c2.53-4.37,1.59-9.92-2.23-13.22l-41.81-36.19c1.44-8.41,2.17-16.97,2.17-25.53s-.73-17.11-2.17-25.52l41.81-36.2c3.82-3.3,4.75-8.85,2.23-13.22l-31.2-54.04c-2.52-4.37-7.8-6.34-12.56-4.68l-52.26,18.11c-13.25-11.06-28.07-19.63-44.21-25.56l-10.44-54.28c-.95-4.96-5.29-8.54-10.34-8.54h-62.4c-5.05,0-9.39,3.58-10.34,8.54l-10.44,54.28c-16.13,5.93-30.95,14.5-44.19,25.55l-52.27-18.12c-4.77-1.65-10.04.31-12.57,4.68l-31.2,54.04c-2.52,4.37-1.59,9.92,2.23,13.22l41.81,36.19c-1.44,8.41-2.17,16.97-2.17,25.53s.73,17.12,2.17,25.52l-41.81,36.2c-3.82,3.3-4.75,8.85-2.23,13.22l31.2,54.04c2.52,4.37,7.8,6.33,12.57,4.68l52.27-18.12c13.25,11.06,28.07,19.63,44.19,25.55l10.44,54.28c.95,4.96,5.29,8.54,10.34,8.54h62.4ZM287.48,438.88h45.01l9.95-51.73c.73-3.78,3.46-6.86,7.12-8.03,17.58-5.65,33.46-14.83,47.22-27.3,2.85-2.58,6.88-3.41,10.52-2.15l49.81,17.26,22.5-38.98-39.83-34.48c-2.91-2.52-4.21-6.41-3.4-10.17,1.92-8.93,2.89-18.11,2.89-27.29s-.97-18.35-2.89-27.29c-.81-3.76.5-7.65,3.4-10.17l39.83-34.48-22.5-38.98-49.8,17.26c-3.64,1.26-7.67.44-10.52-2.15-13.76-12.47-29.65-21.66-47.23-27.3-3.66-1.18-6.39-4.26-7.12-8.03l-9.95-51.72h-45.01s-9.95,51.73-9.95,51.73c-.73,3.78-3.46,6.86-7.12,8.03-17.58,5.65-33.46,14.83-47.22,27.3-2.85,2.58-6.88,3.41-10.52,2.15l-49.81-17.26-22.5,38.98,39.83,34.48c2.91,2.51,4.21,6.41,3.4,10.17-1.92,8.93-2.89,18.11-2.89,27.29s.97,18.36,2.89,27.29c.81,3.76-.5,7.66-3.4,10.17l-39.83,34.48,22.5,38.98,49.81-17.26c3.63-1.26,7.67-.44,10.52,2.15,13.76,12.47,29.65,21.66,47.22,27.3,3.66,1.18,6.39,4.26,7.12,8.04l9.95,51.73h0ZM309.99,365.25c60.24,0,109.25-49.01,109.25-109.25s-49.01-109.25-109.25-109.25-109.25,49.01-109.25,109.25,49.01,109.25,109.25,109.25h0ZM309.99,167.81c-48.63,0-88.19,39.56-88.19,88.19s39.56,88.19,88.19,88.19,88.19-39.56,88.19-88.19-39.56-88.19-88.19-88.19h0ZM298.72,304.26c-1,0-2.01-.14-3.02-.44-5.57-1.66-8.74-7.53-7.07-13.1l22.54-75.46c1.66-5.57,7.53-8.74,13.1-7.07,5.57,1.66,8.74,7.53,7.07,13.1l-22.54,75.46c-1.36,4.56-5.55,7.52-10.08,7.52h0ZM351.83,295.33c-2.24,0-4.49-.71-6.41-2.18-4.61-3.54-5.48-10.15-1.94-14.76l17.2-22.39-17.2-22.39c-3.54-4.61-2.67-11.22,1.94-14.76,4.61-3.54,11.22-2.67,14.76,1.94l22.13,28.81c2.9,3.78,2.9,9.04,0,12.83l-22.13,28.81c-2.07,2.7-5.2,4.11-8.36,4.11Z" fill="#432dd7" fill-rule="evenodd"/><path d="M309.99,146.75c60.24,0,109.25,49.01,109.25,109.25s-49.01,109.25-109.25,109.25-109.25-49.01-109.25-109.25,49.01-109.25,109.25-109.25h0ZM223.19,351.81c13.76,12.47,29.65,21.66,47.22,27.3,3.66,1.18,6.39,4.26,7.12,8.04l9.95,51.73h45.01l9.95-51.73c.73-3.78,3.46-6.86,7.12-8.03,17.58-5.65,33.46-14.83,47.22-27.3,2.85-2.58,6.88-3.41,10.52-2.15l49.81,17.26,22.5-38.98-39.83-34.48c-2.91-2.52-4.21-6.41-3.4-10.17,1.92-8.93,2.89-18.11,2.89-27.29s-.97-18.35-2.89-27.29c-.81-3.76.5-7.65,3.4-10.17l39.83-34.48-22.5-38.98-49.8,17.26c-3.64,1.26-7.67.44-10.52-2.15-13.76-12.47-29.65-21.66-47.23-27.3-3.66-1.18-6.39-4.26-7.12-8.03l-9.95-51.72h-45.01s-9.95,51.73-9.95,51.73c-.73,3.78-3.46,6.86-7.12,8.03-17.58,5.65-33.46,14.83-47.22,27.3-2.85,2.58-6.88,3.41-10.52,2.15l-49.81-17.26-22.5,38.98,39.83,34.48c2.91,2.51,4.21,6.41,3.4,10.17-1.92,8.93-2.89,18.11-2.89,27.29s.97,18.36,2.89,27.29c.81,3.76-.5,7.66-3.4,10.17l-39.83,34.48,22.5,38.98,49.81-17.26c3.63-1.26,7.67-.44,10.52,2.15Z" fill="#432dd7" fill-rule="evenodd"/><polygon points="97.1 245.47 64.03 202.56 31.66 245.47 64.52 245.47 97.1 245.47" fill="#432dd7" fill-rule="evenodd"/><polygon points="522.6 266.53 554.97 309.44 588.04 266.53 555.46 266.53 522.6 266.53" fill="#432dd7" fill-rule="evenodd"/></svg>