<?xml version="1.0" encoding="UTF-8"?><svg id="uuid-51ee9e1b-bbca-41cf-a433-7d18b52f241c" xmlns="http://www.w3.org/2000/svg" viewBox="0 0 619.98 512"><path d="M268.75,275.68c13.62-17.48,18.66-40.54,15.67-64.74-3.49-28.26-17.84-58.01-42.22-82.56-24.39-24.55-54.04-39.1-82.28-42.77-55.66-7.24-94.08,34.89-46.39,68.08,15.12,10.53,36.55,19.5,58.31,28.62,19.08,7.99,38.41,16.09,54.8,25.75,28.26,16.65,47.47,37.26,42.11,67.62h0ZM281.91,497.74c18.08,12.81,41.35,16.8,65.39,12.73,28.07-4.76,57.15-20.44,80.57-45.92,23.42-25.47,36.61-55.76,39-84.13,4.72-55.93-39.11-92.41-70.11-43.26-9.83,15.58-17.83,37.39-25.95,59.54-7.12,19.42-14.34,39.1-23.24,55.91-15.36,28.99-35.07,49.11-65.65,45.13h0ZM425.77,298.26c-16.4-8.24-35.89-10.44-55.93-7.05-28.07,4.76-57.15,20.44-80.57,45.92-23.42,25.47-36.61,55.76-39,84.13-5.93,70.33,52.16,82.15,83.08,23.77,8.37-15.8,15.4-34.98,22.34-53.91,8.41-22.92,16.68-45.49,27.48-62.6,11.24-17.82,24.71-29.67,42.6-30.27h0ZM537.89,29.1c13.62,17.48,18.66,40.54,15.67,64.74-3.49,28.26-17.84,58.01-42.22,82.56-24.39,24.55-54.04,39.1-82.28,42.77-55.66,7.24-94.08-34.89-46.39-68.09,15.12-10.53,36.55-19.5,58.31-28.62,19.08-7.99,38.41-16.09,54.8-25.75,28.26-16.65,47.47-37.26,42.11-67.62h0ZM345.12,181.85c-8.97-16.01-12.06-35.38-9.57-55.55,3.49-28.26,17.84-58.01,42.22-82.56,24.39-24.55,54.04-39.1,82.28-42.77,69.99-9.11,84.42,48.39,27.51,81.92-15.41,9.08-34.25,16.97-52.84,24.76-22.52,9.44-44.69,18.72-61.29,30.28-17.3,12.04-28.52,26.03-28.31,43.92h0ZM75.99,122.93c-8.97,16.01-12.06,35.39-9.57,55.55,3.49,28.26,17.84,58.01,42.22,82.56,24.39,24.55,54.04,39.1,82.28,42.77,69.99,9.11,84.42-48.39,27.51-81.92-15.41-9.08-34.25-16.97-52.84-24.76-22.52-9.44-44.69-18.72-61.29-30.28-17.3-12.04-28.52-26.02-28.31-43.92h0Z" fill="#432dd7"/></svg>